<?xml version="1.0" standalone="no"?>
<!DOCTYPE svg PUBLIC "-//W3C//DTD SVG 20010904//EN"
 "http://www.w3.org/TR/2001/REC-SVG-20010904/DTD/svg10.dtd">
<svg version="1.0" xmlns="http://www.w3.org/2000/svg"
 width="237.000000pt" height="237.000000pt" viewBox="0 0 237.000000 237.000000"
 preserveAspectRatio="xMidYMid meet">

<g transform="translate(0.000000,237.000000) scale(0.100000,-0.100000)"
fill="#000000" stroke="none">
<path d="M0 1185 l0 -1185 1185 0 1185 0 0 1185 0 1185 -1185 0 -1185 0 0
-1185z m511 545 c28 -15 24 -38 -16 -81 -21 -23 -35 -49 -35 -65 0 -14 28 -96
61 -182 34 -86 64 -163 66 -169 4 -10 -21 -13 -105 -13 l-110 0 -72 179 c-67
168 -75 182 -126 231 -57 55 -63 69 -38 94 13 13 44 16 185 16 98 0 179 -4
190 -10z m810 0 c33 -18 22 -48 -31 -86 -63 -45 -74 -65 -150 -261 l-63 -163
-54 0 c-29 0 -53 2 -53 4 0 3 27 76 61 163 72 185 78 230 37 268 -32 29 -36
59 -10 74 23 14 238 14 263 1z m800 0 c31 -17 24 -54 -16 -84 -62 -48 -69 -72
-73 -258 l-4 -168 -98 0 -98 0 -4 168 c-4 185 -9 203 -72 259 -39 34 -46 66
-18 82 23 14 357 14 383 1z m-1771 -617 c30 51 34 47 8 -8 -12 -25 -25 -45
-30 -45 -8 0 -48 73 -48 87 0 4 11 -10 24 -32 l24 -39 22 37z m117 -30 c-2
-16 -4 -5 -4 22 0 28 2 40 4 28 2 -13 2 -35 0 -50z m167 59 c3 -5 -9 -6 -26
-4 -42 6 -33 -19 11 -30 35 -10 41 -40 8 -46 -27 -5 -67 7 -67 20 0 9 3 9 12
0 16 -16 71 -16 66 1 -3 6 -15 14 -29 15 -31 5 -43 17 -36 36 7 17 52 22 61 8z
m151 -32 c24 0 35 5 38 18 3 9 5 -3 4 -28 0 -25 -2 -35 -4 -22 -4 18 -11 22
-38 22 -27 0 -34 -4 -38 -22 -2 -13 -4 0 -4 27 0 28 2 40 4 28 4 -19 11 -23
38 -23z m193 3 c8 20 19 37 23 37 5 0 16 -17 25 -37 l16 -38 19 38 c11 20 21
37 24 37 8 0 -32 -84 -42 -87 -5 -2 -17 13 -25 34 l-15 38 -17 -37 c-9 -21
-20 -38 -25 -38 -8 0 -42 72 -41 88 1 4 11 -11 22 -33 l22 -40 14 38z m273
-16 c12 -23 15 -36 8 -29 -16 15 -79 16 -79 0 0 -6 -3 -9 -6 -6 -9 10 36 89
47 83 5 -4 19 -25 30 -48z m179 43 c10 -6 3 -7 -24 -3 -31 5 -38 3 -34 -8 2
-8 15 -16 29 -17 36 -6 52 -22 38 -38 -16 -20 -64 -17 -80 4 -11 14 -11 15 1
5 16 -15 66 -17 74 -4 7 10 -16 21 -44 21 -23 0 -34 16 -26 35 6 17 43 20 66
5z m276 -66 c-6 -15 -56 -20 -56 -6 0 5 10 8 23 8 19 -1 23 5 26 39 l5 40 4
-33 c2 -19 1 -40 -2 -48z m139 36 c27 0 34 4 38 23 2 12 4 0 4 -28 0 -27 -2
-40 -4 -27 -4 18 -11 22 -38 22 -27 0 -34 -4 -38 -22 -2 -13 -4 0 -4 27 0 28
2 40 4 28 4 -19 11 -23 38 -23z m216 -13 c12 -23 15 -36 8 -29 -16 15 -79 16
-79 0 0 -6 -3 -9 -6 -6 -9 10 36 89 47 83 5 -4 19 -25 30 -48z m-1331 -229
c24 -62 46 -116 50 -121 3 -4 26 46 51 110 l44 118 53 3 c28 2 52 1 52 -1 0
-17 -165 -425 -177 -439 -17 -19 -91 -33 -127 -24 -23 6 -50 65 -203 454 -4 9
21 12 104 12 l110 0 43 -112z m1296 32 c-12 -144 -64 -267 -138 -323 -49 -37
-97 -56 -178 -67 -223 -32 -399 90 -401 277 -1 52 2 60 30 85 65 58 151 21
166 -73 18 -115 79 -189 155 -189 93 0 144 81 163 259 l11 111 100 0 99 0 -7
-80z"/>
<path d="M1200 1110 c-9 -18 -8 -20 15 -20 23 0 24 2 15 20 -6 11 -13 20 -15
20 -2 0 -9 -9 -15 -20z"/>
<path d="M2010 1110 c-9 -18 -8 -20 15 -20 23 0 24 2 15 20 -6 11 -13 20 -15
20 -2 0 -9 -9 -15 -20z"/>
</g>
</svg>
